<?xml version="1.0" standalone="no"?>
<!DOCTYPE svg PUBLIC "-//W3C//DTD SVG 20010904//EN"
 "http://www.w3.org/TR/2001/REC-SVG-20010904/DTD/svg10.dtd">
<svg version="1.0" xmlns="http://www.w3.org/2000/svg"
 width="180.000000pt" height="180.000000pt" viewBox="0 0 180.000000 180.000000"
 preserveAspectRatio="xMidYMid meet">
<metadata>
Created by potrace 1.14, written by Peter Selinger 2001-2017
</metadata>
<g transform="translate(0.000000,180.000000) scale(0.100000,-0.100000)"
fill="#000000" stroke="none">
<path d="M803 1645 c-202 -63 -315 -281 -248 -479 25 -74 80 -151 131 -183 50
-33 114 -62 148 -68 43 -9 43 -15 4 -113 -11 -29 -19 -54 -17 -55 2 -2 23 -18
46 -36 l43 -32 43 36 44 37 -23 56 c-36 87 -34 97 30 111 125 28 232 132 270
265 59 201 -63 412 -269 465 -54 15 -151 13 -202 -4z m257 -44 c3 -3 17 -12
32 -20 45 -23 107 -91 133 -147 62 -131 35 -290 -67 -393 -47 -48 -136 -93
-186 -95 l-37 -1 -1 56 c-1 34 7 84 22 130 46 141 49 212 11 245 -23 20 -34
21 -105 15 -7 0 -20 -17 -28 -37 -19 -46 -13 -106 21 -207 27 -81 36 -180 18
-198 -27 -27 -158 35 -218 104 -126 144 -121 341 13 474 60 60 122 91 198 99
33 4 60 8 62 9 5 4 126 -28 132 -34z"/>
<path d="M775 646 c-8 -6 -28 -28 -44 -49 -30 -38 -30 -39 -13 -65 9 -15 22
-33 28 -39 7 -7 14 -17 16 -23 3 -9 71 -13 215 -11 l72 1 31 44 c36 53 36 56
9 87 -12 13 -27 33 -35 44 -12 17 -27 19 -140 20 -74 1 -131 -3 -139 -9z"/>
<path d="M740 414 c-136 -24 -340 -99 -340 -124 0 -18 168 -92 240 -106 14 -3
54 -11 90 -19 64 -13 275 -14 350 -1 121 20 340 101 340 125 0 25 -238 109
-355 127 -86 12 -247 11 -325 -2z"/>
<path d="M310 325 c-22 -26 -20 -55 5 -71 41 -27 87 14 65 57 -6 10 -14 19
-18 20 -4 0 -15 2 -24 4 -9 2 -22 -3 -28 -10z"/>
<path d="M1460 333 c-38 -15 -42 -69 -5 -83 33 -12 54 -3 61 27 4 16 0 30 -11
43 -19 21 -21 22 -45 13z"/>
</g>
</svg>
